<svg version="1.2" baseProfile="tiny" xmlns="http://www.w3.org/2000/svg" viewBox="0 0 140 100"><path fill="none" stroke="#FFF" stroke-miterlimit="10" d="M130.5 94.4H9.5C4.8 94.4 1 90.6 1 86V20.6c0-4.7 3.8-8.5 8.5-8.5h121c4.7 0 8.5 3.8 8.5 8.5V86c0 4.6-3.8 8.4-8.5 8.4z"/><circle fill="#ED1C2D" cx="9.9" cy="5.8" r="2.8"/><circle fill="#FFCC30" cx="19.4" cy="5.8" r="2.8"/><circle fill="#00AD4D" cx="28.9" cy="5.8" r="2.8"/><g fill="none" stroke="#FFF" stroke-miterlimit="10"><path d="M75.8 62c0 3.2-2.6 5.8-5.8 5.8-3.2 0-5.8-2.6-5.8-5.8 0-1.8.8-3.3 2-4.4 1-.9 2.3-1.4 3.8-1.4 1.4 0 2.8.5 3.8 1.4 1.2 1 2 2.6 2 4.4zM53.9 45.3c4.2-4 9.8-6.5 16.1-6.5 6.2 0 11.9 2.5 16.1 6.5"/><path d="M73.8 57.6c1.2 1 2 2.6 2 4.4 0 3.2-2.6 5.8-5.8 5.8-3.2 0-5.8-2.6-5.8-5.8 0-1.8.8-3.3 2-4.4M60 51.4c2.6-2.4 6.1-3.9 10-3.9 3.9 0 7.4 1.5 10 3.9"/><path d="M73.8 57.6c1.2 1 2 2.6 2 4.4 0 3.2-2.6 5.8-5.8 5.8-3.2 0-5.8-2.6-5.8-5.8 0-1.8.8-3.3 2-4.4"/></g></svg>