<svg version="1.2" baseProfile="tiny" xmlns="http://www.w3.org/2000/svg" viewBox="0 0 140 100"><path fill="none" stroke="#FFF" stroke-miterlimit="10" d="M130 94.4H9c-4.7 0-8.5-3.8-8.5-8.5V20.6c0-4.7 3.8-8.5 8.5-8.5h121c4.7 0 8.5 3.8 8.5 8.5V86c0 4.6-3.8 8.4-8.5 8.4z"/><circle fill="#ED1C2D" cx="10.4" cy="5.8" r="2.8"/><circle fill="#FFCC30" cx="19.9" cy="5.8" r="2.8"/><circle fill="#00AD4D" cx="29.4" cy="5.8" r="2.8"/><g fill="none" stroke="#FFF" stroke-miterlimit="10"><path d="M82.8 42.6c0 7.9-5.6 14.5-13.1 16-1.1.2-2.2.3-3.3.3-1.3 0-2.5-.2-3.8-.4C55.4 56.8 50 50.3 50 42.6h32.8z"/><path d="M64.5 77.1V63.5c0-1-.3-2-1-2.7-.5-.6-.9-1.4-.9-2.3 1.2.3 2.5.4 3.8.4 1.1 0 2.3-.1 3.3-.3 0 .8-.4 1.6-.9 2.2-.7.7-1 1.7-1 2.7v13.6c0 1 .3 2 1 2.7.5.6.9 1.4.9 2.3h-7.1c0-.9.3-1.7.9-2.3.7-.7 1-1.7 1-2.7zm-6.6-42.5L42.3 50.2c-3.2-3.2-2.4-9.4 1.9-13.7s10.4-5.2 13.7-1.9z"/><path d="M50.1 32.9v9.5h-9.4m9.4 0l-5.9-5.9m54.5-4.8l-1.4 1.4-5.9-6L64 54.5l-1.4-1.4 28.8-28.7z"/></g></svg>