<svg version="1.2" baseProfile="tiny" xmlns="http://www.w3.org/2000/svg" viewBox="0 0 140 100"><path fill="none" stroke="#FFF" stroke-miterlimit="10" d="M130 94.4H10.2c-4.7 0-8.5-3.8-8.5-8.5V21.3c0-4.7 3.8-8.5 8.5-8.5H130c4.7 0 8.5 3.8 8.5 8.5V86c0 4.6-3.8 8.4-8.5 8.4z"/><circle fill="#ED1C2D" cx="10.5" cy="6.6" r="2.7"/><circle fill="#FFCC30" cx="19.9" cy="6.6" r="2.7"/><circle fill="#00AD4D" cx="29.4" cy="6.6" r="2.7"/><path d="M72 45.1v10.1h5c2.8 0 5-2.3 5-5 0-2.8-2.3-5-5-5h-5zM56.9 55.2L62 45.1l5 10.1m-2.5-5.1h-5.1" fill="none" stroke="#FFF" stroke-miterlimit="10"/><path fill="none" stroke="#FFF" stroke-miterlimit="10" d="M99.4 38.4v24.3c0 3.5-2.8 6.3-6.3 6.3H80.3L70.1 79.1 59.9 68.9H47c-3.5 0-6.3-2.8-6.3-6.3V38.4c0-3.5 2.8-6.3 6.3-6.3h46.1c3.5 0 6.3 2.8 6.3 6.3z"/></svg>