<svg version="1.2" baseProfile="tiny" xmlns="http://www.w3.org/2000/svg" xmlns:xlink="http://www.w3.org/1999/xlink" viewBox="0 0 500 500"><path fill="#D97043" d="M373.9 405.3h47.3v94.6h-47.3z"/><path fill="#A45C44" d="M380.5 474.2h17v25.6h-17z"/><path fill="#C16A47" d="M295.6 464.3h35.8v35.6h-35.8z"/><path fill="#DE8445" d="M260.5 464.3h35.8v35.6h-35.8z"/><path fill="#D97043" d="M81.7 353.9h61.4v145.9H81.7z"/><path fill="#CFCFCE" d="M.2 396.6h41.2v103.2H.2z"/><path d="M24.1 405.2h8.8v16h-8.8zm-15.4 0h8.8v16H8.7zM24.1 428h8.8v16h-8.8zm-15.4 0h8.8v16H8.7zm15.4 22.9h8.8v16h-8.8zm-15.4 0h8.8v16H8.7z" fill="#989999"/><path fill="#0D0F0F" d="M8.7 473.8h24.2v26.1H8.7z"/><path fill="#989999" d="M8.7 473.8h12.1v26.1H8.7z"/><path fill="#A45C44" d="M87.7 474.2h17v25.6h-17z"/><path fill="#85523F" d="M98.1 487.9h6.6v3.3h-6.6z"/><path fill="#AA5945" d="M119.282 499.863v-8.6h3.2v8.6zm16.761.023v-10.1h3.2v10.1z"/><path fill="#DE8445" d="M41.4 440.2h40.3v59.6H41.4z"/><path d="M47.3 448.2h11.4v8.4H47.3zm17.1 0h11.4v8.4H64.4zm-17.1 17.7h11.4v8.4H47.3zm17.1 0h11.4v8.4H64.4z" fill="#A3CAEF"/><path fill="#C16A47" d="M47.3 483.5h28.6v16.4H47.3z"/><path fill="#A45C44" d="M47.3 483.5h28.6v7.8H47.3z"/><path fill="#0D0F0F" d="M75.7 346.3H149v7.6H75.7z"/><path fill="#628ECB" d="M87.7 361h48.8v10.2H87.7z"/><path fill="#7DABDF" d="M87.7 361h24.4v10.2H87.7z"/><path fill="#628ECB" d="M87.7 375.8h48.8V386H87.7z"/><path fill="#7DABDF" d="M87.7 375.8h24.4V386H87.7z"/><path fill="#628ECB" d="M87.7 390.5h48.8v10.2H87.7z"/><path fill="#7DABDF" d="M87.7 390.5h24.4v10.2H87.7z"/><path fill="#628ECB" d="M87.7 405.3h48.8v10.2H87.7z"/><path fill="#7DABDF" d="M87.7 405.3h24.4v10.2H87.7z"/><path fill="#628ECB" d="M87.7 420h48.8v10.2H87.7z"/><path fill="#7DABDF" d="M87.7 420h24.4v10.2H87.7z"/><path fill="#628ECB" d="M87.7 434.8h48.8V445H87.7z"/><path fill="#7DABDF" d="M87.7 434.8h24.4V445H87.7z"/><path fill="#628ECB" d="M87.7 449.5h48.8v10.2H87.7z"/><path fill="#7DABDF" d="M87.7 449.5h24.4v10.2H87.7z"/><path fill="#52AC62" d="M133.1 479.3c0 3.7-1.6 7-4.1 9.2-.9.8-1.8 1.4-2.9 1.9-1.6.8-3.4 1.2-5.3 1.2-6.8 0-12.4-5.5-12.4-12.4 0-4.7 2.7-8.9 6.6-10.9.6-.4 1.3-.6 2-.9 1.2-.4 2.4-.6 3.7-.6 6.9.1 12.4 5.7 12.4 12.5z"/><circle fill="#53AC6C" cx="137.3" cy="469.9" r="20.4"/><path fill="#50945F" d="M129 488.5c-.9.8-1.8 1.4-2.9 1.9-6.8-3.3-11.4-10.3-11.4-18.3 0-1.3.1-2.6.4-3.8.6-.4 1.3-.6 2-.9-.1.8-.2 1.6-.2 2.4 0 8.4 5 15.6 12.1 18.7z"/><path fill="#CFCFCE" d="M170.8 459.7h73.7v40.2h-73.7z"/><path d="M190.51 430.428v-4.4h3.2v4.4zm31.206.006v-4.4h3.2v4.4zm-31.208 20.396v-4.4h3.2v4.4zm31.206.005v-4.4h3.2v4.4z" fill="#0D0F0F"/><path fill="#CFCFCE" d="M178.8 430.5h57.7v16h-57.7zm16.6-4.4h-6.7c0-1.9 1.5-3.4 3.4-3.4 1.8 0 3.3 1.5 3.3 3.4zm31.2 0h-6.7c0-1.9 1.5-3.4 3.4-3.4 1.8 0 3.3 1.5 3.3 3.4z"/><path d="M296.377 434.83v-4.4h3.2v4.4zm31.206.005v-4.4h3.2v4.4zm-31.208 20.395v-4.4h3.2v4.4zm31.207.007v-4.4h3.2v4.4z" fill="#0D0F0F"/><path fill="#DE8445" d="M284.7 434.9h57.7v16h-57.7z"/><path fill="#C16A47" d="M301.3 430.5h-6.7c0-1.9 1.5-3.4 3.4-3.4 1.8 0 3.3 1.5 3.3 3.4zm31.2 0h-6.7c0-1.9 1.5-3.4 3.4-3.4 1.8 0 3.3 1.5 3.3 3.4z"/><path d="M380.385 384.864v-4.4h3.2v4.4zm31.206.006v-4.4h3.2v4.4zm-31.207 20.395v-4.4h3.2v4.4zm31.206.006v-4.4h3.2v4.4z" fill="#0D0F0F"/><path fill="#DE8445" d="M368.7 384.9h57.7v16h-57.7z"/><path fill="#C16A47" d="M385.3 380.5h-6.7c0-1.9 1.5-3.4 3.4-3.4 1.8 0 3.3 1.5 3.3 3.4zm31.3 0h-6.7c0-1.9 1.5-3.4 3.4-3.4 1.7 0 3.3 1.5 3.3 3.4z"/><path d="M95.189 325.907v-4.4h3.2v4.4zm31.206.006v-4.4h3.2v4.4zm-31.208 20.396v-4.4h3.2v4.4zm31.206.006v-4.4h3.2v4.4z" fill="#0D0F0F"/><path fill="#DE8445" d="M83.5 325.9h57.7v16H83.5z"/><path fill="#C16A47" d="M100.2 321.5h-6.7c0-1.9 1.5-3.4 3.4-3.4 1.8 0 3.3 1.6 3.3 3.4zm31.2 0h-6.7c0-1.9 1.5-3.4 3.4-3.4 1.8 0 3.3 1.6 3.3 3.4z"/><path d="M52.211 429.164v-2.4h1.7v2.4zm16.937.036v-2.4h1.7v2.4zm-16.91 11.037v-2.4h1.7v2.4zm16.937.037v-2.4h1.7v2.4z" fill="#0D0F0F"/><path fill="#DE8445" d="M45.9 429h31.3v8.7H45.9z"/><path fill="#C16A47" d="M54.9 426.8h-3.7c0-1 .8-1.8 1.8-1.8 1.1 0 1.9.8 1.9 1.8zm17 0h-3.7c0-1 .8-1.8 1.8-1.8s1.9.8 1.9 1.8z"/><path fill="#0D0F0F" d="M165.5 450.9h84.4l3 8.8h-90.5z"/><path fill="#989999" d="M183.3 464.3h6.2c3.3 0 5.9 2.6 5.9 5.9v3.1h-18v-3.1c0-3.3 2.7-5.9 5.9-5.9z"/><path fill="#0D0F0F" d="M177.4 473.3h18v26.6h-18z"/><path fill="#989999" d="M204.9 477.2h26.5V495h-26.5z"/><path fill="#0D0F0F" d="M204.9 477.2h26.5v8.9h-26.5z"/><path fill="#989999" d="M201.8 466.9h3.3v10.3h-3.3z"/><path fill="#0D0F0F" d="M205.1 466.9h3.3v10.3h-3.3z"/><path fill="#989999" d="M208.3 466.9h3.3v10.3h-3.3z"/><path fill="#0D0F0F" d="M211.6 466.9h3.3v10.3h-3.3z"/><path fill="#989999" d="M214.9 466.9h3.3v10.3h-3.3z"/><path fill="#0D0F0F" d="M218.1 466.9h3.3v10.3h-3.3z"/><path fill="#989999" d="M221.4 466.9h3.3v10.3h-3.3z"/><path fill="#0D0F0F" d="M224.6 466.9h3.3v10.3h-3.3z"/><path fill="#989999" d="M227.9 466.9h3.3v10.3h-3.3z"/><path fill="#0D0F0F" d="M231.2 466.9h3.3v10.3h-3.3z"/><path fill="#A45C44" d="M301.5 474.2h24.2v25.6h-24.2z"/><path fill="#A45C44" d="M301.5 474.2h12.1v25.6h-12.1z"/><path fill="#85523F" d="M310.3 487.9h6.6v3.3h-6.6z"/><path fill="#0D0F0F" d="M259.8 455.3h107.5v9H259.8z"/><path fill="#DE8445" d="M331.5 464.3h35.8v35.6h-35.8z"/><path fill="#85523F" d="M391 487.9h6.6v3.3H391z"/><path fill="#A3CAEF" d="M380.5 457.8h11.4v9.7h-11.4z"/><path fill="#7DABDF" d="M391.9 457.8h11.4v9.7h-11.4z"/><path fill="#4C7EC0" d="M403.3 457.8h11.4v9.7h-11.4z"/><path fill="#A3CAEF" d="M380.5 442.1h11.4v9.7h-11.4z"/><path fill="#7DABDF" d="M391.9 442.1h11.4v9.7h-11.4z"/><path fill="#4C7EC0" d="M403.3 442.1h11.4v9.7h-11.4z"/><path fill="#A3CAEF" d="M380.5 426.5h11.4v9.7h-11.4z"/><path fill="#7DABDF" d="M391.9 426.5h11.4v9.7h-11.4z"/><path fill="#4C7EC0" d="M403.3 426.5h11.4v9.7h-11.4z"/><path fill="#A3CAEF" d="M380.5 410.9h11.4v9.7h-11.4z"/><path fill="#7DABDF" d="M391.9 410.9h11.4v9.7h-11.4z"/><path fill="#4C7EC0" d="M403.3 410.9h11.4v9.7h-11.4z"/><path fill="#7DABDF" d="M403.3 474.2h11.4v17h-11.4z"/><path fill="#CFCFCE" d="M427.8 467.4h71.9v32.4h-71.9z"/><path fill="#989999" d="M456.2 474.2h17v25.6h-17zm-21.8 0h15.4v17h-15.4z"/><path fill="#0D0F0F" d="M434.4 474.2h15.4v8.5h-15.4z"/><path fill="#989999" d="M477.7 474.2h15.4v17h-15.4z"/><path fill="#0D0F0F" d="M477.7 474.2h8.8v17h-8.8zm-11 13.7h6.6v3.3h-6.6z"/><path fill="#C16A47" d="M259.8 464.3h35.8v2.2h-35.8z"/><path fill="#989999" d="M170.8 459.7h73.8v2.2h-73.8z"/><path fill="#C16A47" d="M331.5 464.3h35.8v2.2h-35.8zM79.4 440.2h2.3v59.6h-2.3zm-38 0h2.3v59.6h-2.3z"/><image width="110" height="187" xlink:href="B4397FCC7CF01BD.png" transform="matrix(.24 0 0 .24 99.23 263.493)"/><image width="110" height="187" xlink:href="B4397FCC7CF01BF.png" transform="matrix(.24 0 0 .24 300.386 375.866)"/><image width="110" height="187" xlink:href="B4397FCC7CF01BA.png" transform="matrix(.24 0 0 .24 384.407 319.587)"/><image width="83" height="140" xlink:href="B4397FCC7CF01BB.png" transform="matrix(.24 0 0 .24 51.678 379.445)"/><g fill="#EEBB97"><path d="M327 444h-26.8c-.4 0-.7-.3-.7-.7v-.7c0-.4.3-.7.7-.7H327c.4 0 .7.3.7.7v.7c0 .3-.4.7-.7.7z"/><path d="M305.8 439v7.7c0 .4-.3.7-.7.7h-.7c-.4 0-.7-.3-.7-.7V439c0-.4.3-.7.7-.7h.7c.4 0 .7.4.7.7zm-2.1 2v3.7c0 .4-.3.7-.7.7h-.7c-.4 0-.7-.3-.7-.7V441c0-.4.3-.7.7-.7h.7c.4 0 .7.4.7.7zm17.6-2v7.7c0 .4.3.7.7.7h.7c.4 0 .7-.3.7-.7V439c0-.4-.3-.7-.7-.7h-.7c-.4 0-.7.4-.7.7zm2.1 2v3.7c0 .4.3.7.7.7h.7c.4 0 .7-.3.7-.7V441c0-.4-.3-.7-.7-.7h-.7c-.3 0-.7.4-.7.7z"/></g><path fill="#EEBB97" d="M387.7 398.2h-5.6v-6.5h5.6v1.6h-4.1v3.4h4.1zm4.2-10.6h1.5v10.6h-1.5zm11.4 10.6h-6.5v-5.7h1.5v4.2h3.4v-4.2h1.6zm9.8 0h-6.4v-10.6h1.5v4.2h4.9v6.4zm-4.9-1.5h3.4v-3.4h-3.4v3.4z"/><g fill="#EEBB97"><path d="M93.6 329.1h1.5v9.6h-1.5zm4 0h1.5v9.6h-1.5z"/><path d="M94.4 333.1h4v1.5h-4zm12.8 5.6h-5.5v-9.5h5.5v9.5zm-4-1.5h2.5v-6.5h-2.5v6.5zm19.2 1.5h-4.8v-9.6h4.8v1.6h-3.2v6.5h3.2z"/><path d="M118.4 333.1h4v1.5h-4zm12 5.6h-4.7v-9.6h1.5v8.1h3.2zm-20-9.6h4v1.5h-4z"/><path d="M111.6 329.9h1.5v8.9h-1.5z"/></g><path fill="#EEBB97" d="M62.1 430.8c-.1-.4-.2-.8-.4-1-.1-.1-.1-.1-.2-.1s-.1 0-.2.1c-.2.2-.3.5-.4 1v1.6l-.7.4v-.1h-.4v.4l-.1.1v-.1h-.4v.4l-.7.4-.1.1v.5s.1.1.2 0l1.7-.5h.6c0 .6.1 1.2.1 1.6v.1l-.9.8s-.1.1-.1.2v.3s.1.1.2 0l.9-.3h.1c0 .1.1.1.1.1s.1.1.2.1.1 0 .2-.1l.1-.1h.1l.9.3h.2v-.3c0-.1 0-.1-.1-.1l-.9-.8v-.1c.1-.5.1-1 .1-1.6h.6l1.7.5h.2v-.5s0-.1-.1-.1l-.7-.4v-.4h-.4v.1l-.1-.1v-.4H63v.1l-.7-.4v-.3c-.1-.7-.1-1-.2-1.4zm0 0"/></svg>