<?xml version="1.0" encoding="utf-8"?>
<!-- Generator: Adobe Illustrator 19.0.0, SVG Export Plug-In . SVG Version: 6.00 Build 0)  -->
<svg version="1.2" baseProfile="tiny" id="Слой_1"
	 xmlns="http://www.w3.org/2000/svg" xmlns:xlink="http://www.w3.org/1999/xlink" x="0px" y="0px" viewBox="0 0 140 100"
	 xml:space="preserve">
<path id="XMLID_20_" fill="none" stroke="#FFFFFF" stroke-miterlimit="10" d="M130.5,94.4H9.5C4.8,94.4,1,90.6,1,86V20.6
	c0-4.7,3.8-8.5,8.5-8.5h121c4.7,0,8.5,3.8,8.5,8.5V86C139,90.6,135.2,94.4,130.5,94.4z"/>
<circle id="XMLID_1_" fill="#ED1C2D" cx="9.9" cy="5.8" r="2.8"/>
<circle id="XMLID_2_" fill="#FFCC30" cx="19.4" cy="5.8" r="2.8"/>
<circle id="XMLID_3_" fill="#00AD4D" cx="28.9" cy="5.8" r="2.8"/>
<g id="XMLID_4_">
	<path id="XMLID_5_" fill="none" stroke="#FFFFFF" stroke-miterlimit="10" d="M75.8,62c0,3.2-2.6,5.8-5.8,5.8
		c-3.2,0-5.8-2.6-5.8-5.8c0-1.8,0.8-3.3,2-4.4c1-0.9,2.3-1.4,3.8-1.4c1.4,0,2.8,0.5,3.8,1.4C75,58.6,75.8,60.2,75.8,62z"/>
	<path id="XMLID_6_" fill="none" stroke="#FFFFFF" stroke-miterlimit="10" d="M53.9,45.3c4.2-4,9.8-6.5,16.1-6.5
		c6.2,0,11.9,2.5,16.1,6.5"/>
	<path id="XMLID_7_" fill="none" stroke="#FFFFFF" stroke-miterlimit="10" d="M73.8,57.6c1.2,1,2,2.6,2,4.4c0,3.2-2.6,5.8-5.8,5.8
		c-3.2,0-5.8-2.6-5.8-5.8c0-1.8,0.8-3.3,2-4.4"/>
	<path id="XMLID_8_" fill="none" stroke="#FFFFFF" stroke-miterlimit="10" d="M60,51.4c2.6-2.4,6.1-3.9,10-3.9c3.9,0,7.4,1.5,10,3.9
		"/>
	<path id="XMLID_9_" fill="none" stroke="#FFFFFF" stroke-miterlimit="10" d="M73.8,57.6c1.2,1,2,2.6,2,4.4c0,3.2-2.6,5.8-5.8,5.8
		c-3.2,0-5.8-2.6-5.8-5.8c0-1.8,0.8-3.3,2-4.4"/>
</g>
</svg>
