<?xml version="1.0" encoding="utf-8"?>
<!-- Generator: Adobe Illustrator 19.0.0, SVG Export Plug-In . SVG Version: 6.00 Build 0)  -->
<svg version="1.2" baseProfile="tiny" id="Слой_1"
	 xmlns="http://www.w3.org/2000/svg" xmlns:xlink="http://www.w3.org/1999/xlink" x="0px" y="0px" viewBox="0 0 140 100"
	 xml:space="preserve">
<path id="XMLID_33_" fill="none" stroke="#FFFFFF" stroke-miterlimit="10" d="M130,94.4H9c-4.7,0-8.5-3.8-8.5-8.5V20.6
	c0-4.7,3.8-8.5,8.5-8.5h121c4.7,0,8.5,3.8,8.5,8.5V86C138.5,90.6,134.7,94.4,130,94.4z"/>
<circle id="XMLID_1_" fill="#ED1C2D" cx="10.4" cy="5.8" r="2.8"/>
<circle id="XMLID_2_" fill="#FFCC30" cx="19.9" cy="5.8" r="2.8"/>
<circle id="XMLID_3_" fill="#00AD4D" cx="29.4" cy="5.8" r="2.8"/>
<g id="XMLID_4_">
	<path id="XMLID_5_" fill="none" stroke="#FFFFFF" stroke-miterlimit="10" d="M82.8,42.6c0,7.9-5.6,14.5-13.1,16
		c-1.1,0.2-2.2,0.3-3.3,0.3c-1.3,0-2.5-0.2-3.8-0.4C55.4,56.8,50,50.3,50,42.6H82.8z"/>
	<path id="XMLID_6_" fill="none" stroke="#FFFFFF" stroke-miterlimit="10" d="M64.5,77.1V63.5c0-1-0.3-2-1-2.7
		c-0.5-0.6-0.9-1.4-0.9-2.3c1.2,0.3,2.5,0.4,3.8,0.4c1.1,0,2.3-0.1,3.3-0.3c0,0.8-0.4,1.6-0.9,2.2c-0.7,0.7-1,1.7-1,2.7v13.6
		c0,1,0.3,2,1,2.7c0.5,0.6,0.9,1.4,0.9,2.3h-7.1c0-0.9,0.3-1.7,0.9-2.3C64.2,79.1,64.5,78.1,64.5,77.1z"/>
	<g id="XMLID_7_">
		<path id="XMLID_27_" fill="none" stroke="#FFFFFF" stroke-miterlimit="10" d="M57.9,34.6L42.3,50.2c-3.2-3.2-2.4-9.4,1.9-13.7
			S54.6,31.3,57.9,34.6z"/>
		<polyline id="XMLID_26_" fill="none" stroke="#FFFFFF" stroke-miterlimit="10" points="50.1,32.9 50.1,42.4 40.7,42.4 		"/>
		<line id="XMLID_25_" fill="none" stroke="#FFFFFF" stroke-miterlimit="10" x1="50.1" y1="42.4" x2="44.2" y2="36.5"/>
	</g>
	<polygon id="XMLID_23_" fill="none" stroke="#FFFFFF" stroke-miterlimit="10" points="98.7,31.7 97.3,33.1 91.4,27.1 64,54.5 
		62.6,53.1 91.4,24.4 	"/>
</g>
</svg>
