<?xml version="1.0" encoding="utf-8"?>
<!-- Generator: Adobe Illustrator 19.0.0, SVG Export Plug-In . SVG Version: 6.00 Build 0)  -->
<svg version="1.2" baseProfile="tiny" id="Слой_1"
	 xmlns="http://www.w3.org/2000/svg" xmlns:xlink="http://www.w3.org/1999/xlink" x="0px" y="0px" viewBox="0 0 140 100"
	 xml:space="preserve">
<path id="XMLID_31_" fill="none" stroke="#FFFFFF" stroke-miterlimit="10" d="M130,94.4H10.2c-4.7,0-8.5-3.8-8.5-8.5V21.3
	c0-4.7,3.8-8.5,8.5-8.5H130c4.7,0,8.5,3.8,8.5,8.5V86C138.5,90.6,134.7,94.4,130,94.4z"/>
<circle id="XMLID_1_" fill="#ED1C2D" cx="10.5" cy="6.6" r="2.7"/>
<circle id="XMLID_2_" fill="#FFCC30" cx="19.9" cy="6.6" r="2.7"/>
<circle id="XMLID_3_" fill="#00AD4D" cx="29.4" cy="6.6" r="2.7"/>
<g id="XMLID_4_">
	<path id="XMLID_5_" fill="none" stroke="#FFFFFF" stroke-miterlimit="10" d="M72,45.1v10.1h5c2.8,0,5-2.3,5-5v0c0-2.8-2.3-5-5-5H72
		z"/>
	<g id="XMLID_6_">
		<polyline id="XMLID_7_" fill="none" stroke="#FFFFFF" stroke-miterlimit="10" points="56.9,55.2 62,45.1 67,55.2 		"/>
		<line id="XMLID_8_" fill="none" stroke="#FFFFFF" stroke-miterlimit="10" x1="64.5" y1="50.1" x2="59.4" y2="50.1"/>
	</g>
</g>
<path id="XMLID_9_" fill="none" stroke="#FFFFFF" stroke-miterlimit="10" d="M99.4,38.4v24.3c0,3.5-2.8,6.3-6.3,6.3H80.3L70.1,79.1
	L59.9,68.9H47c-3.5,0-6.3-2.8-6.3-6.3V38.4c0-3.5,2.8-6.3,6.3-6.3h46.1C96.6,32.1,99.4,34.9,99.4,38.4z"/>
</svg>
