<?xml version="1.0" encoding="utf-8"?>
<!-- Generator: Adobe Illustrator 19.2.1, SVG Export Plug-In . SVG Version: 6.00 Build 0)  -->
<svg version="1.2" baseProfile="tiny" id="Слой_1"
	 xmlns="http://www.w3.org/2000/svg" xmlns:xlink="http://www.w3.org/1999/xlink" x="0px" y="0px" viewBox="0 0 500 500"
	 xml:space="preserve">
<rect x="373.9" y="405.3" fill="#D97043" width="47.3" height="94.6"/>
<rect x="380.5" y="474.2" fill="#A45C44" width="17" height="25.6"/>
<rect x="295.6" y="464.3" fill="#C16A47" width="35.8" height="35.6"/>
<rect x="260.5" y="464.3" fill="#DE8445" width="35.8" height="35.6"/>
<rect x="81.7" y="353.9" fill="#D97043" width="61.4" height="145.9"/>
<rect x="0.2" y="396.6" fill="#CFCFCE" width="41.2" height="103.2"/>
<g>
	<rect x="24.1" y="405.2" fill="#989999" width="8.8" height="16"/>
	<rect x="8.7" y="405.2" fill="#989999" width="8.8" height="16"/>
	<rect x="24.1" y="428" fill="#989999" width="8.8" height="16"/>
	<rect x="8.7" y="428" fill="#989999" width="8.8" height="16"/>
	<rect x="24.1" y="450.9" fill="#989999" width="8.8" height="16"/>
	<rect x="8.7" y="450.9" fill="#989999" width="8.8" height="16"/>
</g>
<rect x="8.7" y="473.8" fill="#0D0F0F" width="24.2" height="26.1"/>
<rect x="8.7" y="473.8" fill="#989999" width="12.1" height="26.1"/>
<rect x="87.7" y="474.2" fill="#A45C44" width="17" height="25.6"/>
<rect x="98.1" y="487.9" fill="#85523F" width="6.6" height="3.3"/>
<rect x="116.5" y="494" transform="matrix(3.341156e-11 -1 1 3.341156e-11 -374.7184 616.3626)" fill="#AA5945" width="8.6" height="3.2"/>
<rect x="132.6" y="493.2" transform="matrix(2.890938e-11 -1 1 2.890938e-11 -357.157 632.4859)" fill="#AA5945" width="10.1" height="3.2"/>
<rect x="41.4" y="440.2" fill="#DE8445" width="40.3" height="59.6"/>
<g>
	<rect x="47.3" y="448.2" fill="#A3CAEF" width="11.4" height="8.4"/>
	<rect x="64.4" y="448.2" fill="#A3CAEF" width="11.4" height="8.4"/>
	<rect x="47.3" y="465.9" fill="#A3CAEF" width="11.4" height="8.4"/>
	<rect x="64.4" y="465.9" fill="#A3CAEF" width="11.4" height="8.4"/>
</g>
<rect x="47.3" y="483.5" fill="#C16A47" width="28.6" height="16.4"/>
<rect x="47.3" y="483.5" fill="#A45C44" width="28.6" height="7.8"/>
<rect x="75.7" y="346.3" fill="#0D0F0F" width="73.3" height="7.6"/>
<rect x="87.7" y="361" fill="#628ECB" width="48.8" height="10.2"/>
<rect x="87.7" y="361" fill="#7DABDF" width="24.4" height="10.2"/>
<rect x="87.7" y="375.8" fill="#628ECB" width="48.8" height="10.2"/>
<rect x="87.7" y="375.8" fill="#7DABDF" width="24.4" height="10.2"/>
<rect x="87.7" y="390.5" fill="#628ECB" width="48.8" height="10.2"/>
<rect x="87.7" y="390.5" fill="#7DABDF" width="24.4" height="10.2"/>
<rect x="87.7" y="405.3" fill="#628ECB" width="48.8" height="10.2"/>
<rect x="87.7" y="405.3" fill="#7DABDF" width="24.4" height="10.2"/>
<rect x="87.7" y="420" fill="#628ECB" width="48.8" height="10.2"/>
<rect x="87.7" y="420" fill="#7DABDF" width="24.4" height="10.2"/>
<rect x="87.7" y="434.8" fill="#628ECB" width="48.8" height="10.2"/>
<rect x="87.7" y="434.8" fill="#7DABDF" width="24.4" height="10.2"/>
<rect x="87.7" y="449.5" fill="#628ECB" width="48.8" height="10.2"/>
<rect x="87.7" y="449.5" fill="#7DABDF" width="24.4" height="10.2"/>
<path fill="#52AC62" d="M133.1,479.3c0,3.7-1.6,7-4.1,9.2c-0.9,0.8-1.8,1.4-2.9,1.9c-1.6,0.8-3.4,1.2-5.3,1.2
	c-6.8,0-12.4-5.5-12.4-12.4c0-4.7,2.7-8.9,6.6-10.9c0.6-0.4,1.3-0.6,2-0.9c1.2-0.4,2.4-0.6,3.7-0.6
	C127.6,466.9,133.1,472.5,133.1,479.3z"/>
<circle fill="#53AC6C" cx="137.3" cy="469.9" r="20.4"/>
<path fill="#50945F" d="M129,488.5c-0.9,0.8-1.8,1.4-2.9,1.9c-6.8-3.3-11.4-10.3-11.4-18.3c0-1.3,0.1-2.6,0.4-3.8
	c0.6-0.4,1.3-0.6,2-0.9c-0.1,0.8-0.2,1.6-0.2,2.4C116.9,478.2,121.9,485.4,129,488.5z"/>
<rect x="170.8" y="459.7" fill="#CFCFCE" width="73.7" height="40.2"/>
<g>
	<g>
		
			<rect x="189.9" y="426.7" transform="matrix(6.657259e-11 -1 1 6.657259e-11 -236.1905 620.3276)" fill="#0D0F0F" width="4.4" height="3.2"/>
		
			<rect x="221.1" y="426.7" transform="matrix(6.574303e-11 -1 1 6.574303e-11 -204.9844 651.5337)" fill="#0D0F0F" width="4.4" height="3.2"/>
	</g>
	<g>
		
			<rect x="189.9" y="447.1" transform="matrix(6.657259e-11 -1 1 6.657259e-11 -256.592 640.7291)" fill="#0D0F0F" width="4.4" height="3.2"/>
		
			<rect x="221.1" y="447.1" transform="matrix(6.574303e-11 -1 1 6.574303e-11 -225.386 671.9352)" fill="#0D0F0F" width="4.4" height="3.2"/>
	</g>
	<rect x="178.8" y="430.5" fill="#CFCFCE" width="57.7" height="16"/>
	<path fill="#CFCFCE" d="M195.4,426.1h-6.7c0-1.9,1.5-3.4,3.4-3.4C193.9,422.7,195.4,424.2,195.4,426.1z"/>
	<path fill="#CFCFCE" d="M226.6,426.1h-6.7c0-1.9,1.5-3.4,3.4-3.4C225.1,422.7,226.6,424.2,226.6,426.1z"/>
</g>
<g>
	
		<rect x="295.8" y="431.1" transform="matrix(6.263263e-11 -1 1 6.263263e-11 -134.7231 730.6293)" fill="#0D0F0F" width="4.4" height="3.2"/>
	
		<rect x="327" y="431.1" transform="matrix(6.636564e-11 -1 1 6.636564e-11 -103.517 761.8354)" fill="#0D0F0F" width="4.4" height="3.2"/>
</g>
<g>
	
		<rect x="295.8" y="451.5" transform="matrix(6.263263e-11 -1 1 6.263263e-11 -155.1246 751.0309)" fill="#0D0F0F" width="4.4" height="3.2"/>
	
		<rect x="327" y="451.5" transform="matrix(6.636564e-11 -1 1 6.636564e-11 -123.9185 782.2369)" fill="#0D0F0F" width="4.4" height="3.2"/>
</g>
<rect x="284.7" y="434.9" fill="#DE8445" width="57.7" height="16"/>
<path fill="#C16A47" d="M301.3,430.5h-6.7c0-1.9,1.5-3.4,3.4-3.4C299.8,427.1,301.3,428.6,301.3,430.5z"/>
<path fill="#C16A47" d="M332.5,430.5h-6.7c0-1.9,1.5-3.4,3.4-3.4C331,427.1,332.5,428.6,332.5,430.5z"/>
<g>
	
		<rect x="379.8" y="381.1" transform="matrix(6.263263e-11 -1 1 6.263263e-11 -0.7149 764.6637)" fill="#0D0F0F" width="4.4" height="3.2"/>
	
		<rect x="411" y="381.1" transform="matrix(6.595086e-11 -1 1 6.595086e-11 30.4912 795.8698)" fill="#0D0F0F" width="4.4" height="3.2"/>
</g>
<g>
	
		<rect x="379.8" y="401.5" transform="matrix(6.263263e-11 -1 1 6.263263e-11 -21.1164 785.0652)" fill="#0D0F0F" width="4.4" height="3.2"/>
	
		<rect x="411" y="401.5" transform="matrix(6.595086e-11 -1 1 6.595086e-11 10.0897 816.2713)" fill="#0D0F0F" width="4.4" height="3.2"/>
</g>
<rect x="368.7" y="384.9" fill="#DE8445" width="57.7" height="16"/>
<path fill="#C16A47" d="M385.3,380.5h-6.7c0-1.9,1.5-3.4,3.4-3.4C383.8,377.1,385.3,378.6,385.3,380.5z"/>
<path fill="#C16A47" d="M416.6,380.5h-6.7c0-1.9,1.5-3.4,3.4-3.4C415,377.1,416.6,378.6,416.6,380.5z"/>
<g>
	
		<rect x="94.6" y="322.1" transform="matrix(6.263263e-11 -1 1 6.263263e-11 -226.9113 420.507)" fill="#0D0F0F" width="4.4" height="3.2"/>
	
		<rect x="125.8" y="322.1" transform="matrix(6.595086e-11 -1 1 6.595086e-11 -195.7052 451.713)" fill="#0D0F0F" width="4.4" height="3.2"/>
</g>
<g>
	
		<rect x="94.6" y="342.5" transform="matrix(6.263263e-11 -1 1 6.263263e-11 -247.3128 440.9085)" fill="#0D0F0F" width="4.4" height="3.2"/>
	
		<rect x="125.8" y="342.5" transform="matrix(6.595086e-11 -1 1 6.595086e-11 -216.1068 472.1146)" fill="#0D0F0F" width="4.4" height="3.2"/>
</g>
<rect x="83.5" y="325.9" fill="#DE8445" width="57.7" height="16"/>
<path fill="#C16A47" d="M100.2,321.5h-6.7c0-1.9,1.5-3.4,3.4-3.4C98.7,318.1,100.2,319.7,100.2,321.5z"/>
<path fill="#C16A47" d="M131.4,321.5h-6.7c0-1.9,1.5-3.4,3.4-3.4C129.9,318.1,131.4,319.7,131.4,321.5z"/>
<g>
	
		<rect x="51.9" y="427.1" transform="matrix(6.304830e-11 -1 1 6.304830e-11 -374.889 481.0637)" fill="#0D0F0F" width="2.4" height="1.7"/>
	
		<rect x="68.8" y="427.1" transform="matrix(6.419493e-11 -1 1 6.419493e-11 -357.9519 498.0008)" fill="#0D0F0F" width="2.4" height="1.7"/>
</g>
<g>
	
		<rect x="51.9" y="438.2" transform="matrix(6.304830e-11 -1 1 6.304830e-11 -385.9619 492.1367)" fill="#0D0F0F" width="2.4" height="1.7"/>
	
		<rect x="68.8" y="438.2" transform="matrix(6.419493e-11 -1 1 6.419493e-11 -369.0248 509.0738)" fill="#0D0F0F" width="2.4" height="1.7"/>
</g>
<rect x="45.9" y="429" fill="#DE8445" width="31.3" height="8.7"/>
<path fill="#C16A47" d="M54.9,426.8h-3.7c0-1,0.8-1.8,1.8-1.8C54.1,425,54.9,425.8,54.9,426.8z"/>
<path fill="#C16A47" d="M71.9,426.8h-3.7c0-1,0.8-1.8,1.8-1.8C71,425,71.9,425.8,71.9,426.8z"/>
<polygon fill="#0D0F0F" points="165.5,450.9 249.9,450.9 252.9,459.7 162.4,459.7 "/>
<path fill="#989999" d="M183.3,464.3h6.2c3.3,0,5.9,2.6,5.9,5.9v3.1h-18v-3.1C177.4,466.9,180.1,464.3,183.3,464.3z"/>
<rect x="177.4" y="473.3" fill="#0D0F0F" width="18" height="26.6"/>
<rect x="204.9" y="477.2" fill="#989999" width="26.5" height="17.8"/>
<rect x="204.9" y="477.2" fill="#0D0F0F" width="26.5" height="8.9"/>
<rect x="201.8" y="466.9" fill="#989999" width="3.3" height="10.3"/>
<rect x="205.1" y="466.9" fill="#0D0F0F" width="3.3" height="10.3"/>
<rect x="208.3" y="466.9" fill="#989999" width="3.3" height="10.3"/>
<rect x="211.6" y="466.9" fill="#0D0F0F" width="3.3" height="10.3"/>
<rect x="214.9" y="466.9" fill="#989999" width="3.3" height="10.3"/>
<rect x="218.1" y="466.9" fill="#0D0F0F" width="3.3" height="10.3"/>
<rect x="221.4" y="466.9" fill="#989999" width="3.3" height="10.3"/>
<rect x="224.6" y="466.9" fill="#0D0F0F" width="3.3" height="10.3"/>
<rect x="227.9" y="466.9" fill="#989999" width="3.3" height="10.3"/>
<rect x="231.2" y="466.9" fill="#0D0F0F" width="3.3" height="10.3"/>
<rect x="301.5" y="474.2" fill="#A45C44" width="24.2" height="25.6"/>
<rect x="301.5" y="474.2" fill="#A45C44" width="12.1" height="25.6"/>
<rect x="310.3" y="487.9" fill="#85523F" width="6.6" height="3.3"/>
<rect x="259.8" y="455.3" fill="#0D0F0F" width="107.5" height="9"/>
<rect x="331.5" y="464.3" fill="#DE8445" width="35.8" height="35.6"/>
<rect x="391" y="487.9" fill="#85523F" width="6.6" height="3.3"/>
<rect x="380.5" y="457.8" fill="#A3CAEF" width="11.4" height="9.7"/>
<rect x="391.9" y="457.8" fill="#7DABDF" width="11.4" height="9.7"/>
<rect x="403.3" y="457.8" fill="#4C7EC0" width="11.4" height="9.7"/>
<rect x="380.5" y="442.1" fill="#A3CAEF" width="11.4" height="9.7"/>
<rect x="391.9" y="442.1" fill="#7DABDF" width="11.4" height="9.7"/>
<rect x="403.3" y="442.1" fill="#4C7EC0" width="11.4" height="9.7"/>
<rect x="380.5" y="426.5" fill="#A3CAEF" width="11.4" height="9.7"/>
<rect x="391.9" y="426.5" fill="#7DABDF" width="11.4" height="9.7"/>
<rect x="403.3" y="426.5" fill="#4C7EC0" width="11.4" height="9.7"/>
<rect x="380.5" y="410.9" fill="#A3CAEF" width="11.4" height="9.7"/>
<rect x="391.9" y="410.9" fill="#7DABDF" width="11.4" height="9.7"/>
<rect x="403.3" y="410.9" fill="#4C7EC0" width="11.4" height="9.7"/>
<rect x="403.3" y="474.2" fill="#7DABDF" width="11.4" height="17"/>
<rect x="427.8" y="467.4" fill="#CFCFCE" width="71.9" height="32.4"/>
<rect x="456.2" y="474.2" fill="#989999" width="17" height="25.6"/>
<rect x="434.4" y="474.2" fill="#989999" width="15.4" height="17"/>
<rect x="434.4" y="474.2" fill="#0D0F0F" width="15.4" height="8.5"/>
<rect x="477.7" y="474.2" fill="#989999" width="15.4" height="17"/>
<rect x="477.7" y="474.2" fill="#0D0F0F" width="8.8" height="17"/>
<rect x="466.7" y="487.9" fill="#0D0F0F" width="6.6" height="3.3"/>
<rect x="259.8" y="464.3" fill="#C16A47" width="35.8" height="2.2"/>
<rect x="170.8" y="459.7" fill="#989999" width="73.8" height="2.2"/>
<rect x="331.5" y="464.3" fill="#C16A47" width="35.8" height="2.2"/>
<rect x="79.4" y="440.2" fill="#C16A47" width="2.3" height="59.6"/>
<rect x="41.4" y="440.2" fill="#C16A47" width="2.3" height="59.6"/>
<image width="110" height="187" xlink:href="B4397FCC7CF01BD.png"  transform="matrix(0.24 0 0 0.24 99.2305 263.4935)">
</image>
<image width="110" height="187" xlink:href="B4397FCC7CF01BF.png"  transform="matrix(0.24 0 0 0.24 300.3858 375.8658)">
</image>
<image width="110" height="187" xlink:href="B4397FCC7CF01BA.png"  transform="matrix(0.24 0 0 0.24 384.407 319.5869)">
</image>
<image width="83" height="140" xlink:href="B4397FCC7CF01BB.png"  transform="matrix(0.24 0 0 0.24 51.6781 379.4455)">
</image>
<g>
	<path fill="#EEBB97" d="M327,444h-26.8c-0.4,0-0.7-0.3-0.7-0.7v-0.7c0-0.4,0.3-0.7,0.7-0.7H327c0.4,0,0.7,0.3,0.7,0.7v0.7
		C327.7,443.6,327.3,444,327,444z"/>
	<g>
		<g>
			<path fill="#EEBB97" d="M305.8,439v7.7c0,0.4-0.3,0.7-0.7,0.7h-0.7c-0.4,0-0.7-0.3-0.7-0.7V439c0-0.4,0.3-0.7,0.7-0.7h0.7
				C305.5,438.3,305.8,438.7,305.8,439z"/>
			<path fill="#EEBB97" d="M303.7,441v3.7c0,0.4-0.3,0.7-0.7,0.7h-0.7c-0.4,0-0.7-0.3-0.7-0.7V441c0-0.4,0.3-0.7,0.7-0.7h0.7
				C303.4,440.3,303.7,440.7,303.7,441z"/>
		</g>
		<g>
			<path fill="#EEBB97" d="M321.3,439v7.7c0,0.4,0.3,0.7,0.7,0.7h0.7c0.4,0,0.7-0.3,0.7-0.7V439c0-0.4-0.3-0.7-0.7-0.7H322
				C321.6,438.3,321.3,438.7,321.3,439z"/>
			<path fill="#EEBB97" d="M323.4,441v3.7c0,0.4,0.3,0.7,0.7,0.7h0.7c0.4,0,0.7-0.3,0.7-0.7V441c0-0.4-0.3-0.7-0.7-0.7h-0.7
				C323.8,440.3,323.4,440.7,323.4,441z"/>
		</g>
	</g>
</g>
<g>
	<g>
		<polygon fill="#EEBB97" points="387.7,398.2 382.1,398.2 382.1,391.7 387.7,391.7 387.7,393.3 383.6,393.3 383.6,396.7 
			387.7,396.7 		"/>
	</g>
	<g>
		<rect x="391.9" y="387.6" fill="#EEBB97" width="1.5" height="10.6"/>
	</g>
	<g>
		<polygon fill="#EEBB97" points="403.3,398.2 396.8,398.2 396.8,392.5 398.3,392.5 398.3,396.7 401.7,396.7 401.7,392.5 
			403.3,392.5 		"/>
	</g>
	<g>
		<path fill="#EEBB97" d="M413.1,398.2h-6.4v-10.6h1.5v4.2h4.9V398.2z M408.2,396.7h3.4v-3.4h-3.4V396.7z"/>
	</g>
</g>
<g>
	<g>
		<rect x="93.6" y="329.1" fill="#EEBB97" width="1.5" height="9.6"/>
	</g>
	<g>
		<rect x="97.6" y="329.1" fill="#EEBB97" width="1.5" height="9.6"/>
	</g>
	<g>
		<rect x="94.4" y="333.1" fill="#EEBB97" width="4" height="1.5"/>
	</g>
	<g>
		<path fill="#EEBB97" d="M107.2,338.7h-5.5v-9.5h5.5V338.7z M103.2,337.2h2.5v-6.5h-2.5V337.2z"/>
	</g>
	<g>
		<polygon fill="#EEBB97" points="122.4,338.7 117.6,338.7 117.6,329.1 122.4,329.1 122.4,330.7 119.2,330.7 119.2,337.2 
			122.4,337.2 		"/>
	</g>
	<g>
		<rect x="118.4" y="333.1" fill="#EEBB97" width="4" height="1.5"/>
	</g>
	<g>
		<polygon fill="#EEBB97" points="130.4,338.7 125.7,338.7 125.7,329.1 127.2,329.1 127.2,337.2 130.4,337.2 		"/>
	</g>
	<g>
		<path fill="#EEBB97" d="M114.4,329.9"/>
	</g>
	<g>
		<rect x="110.4" y="329.1" fill="#EEBB97" width="4" height="1.5"/>
	</g>
	<g>
		<rect x="111.6" y="329.9" fill="#EEBB97" width="1.5" height="8.9"/>
	</g>
</g>
<path fill="#EEBB97" d="M62.1,430.8c-0.1-0.4-0.2-0.8-0.4-1c-0.1-0.1-0.1-0.1-0.2-0.1c0,0,0,0,0,0c0,0,0,0,0,0c-0.1,0-0.1,0-0.2,0.1
	c-0.2,0.2-0.3,0.5-0.4,1c0,0.3,0,0.7,0,1.3c0,0.1,0,0.2,0,0.3l-0.7,0.4l0,0c0,0,0-0.1,0-0.1c0,0-0.1,0-0.1,0l-0.2,0c0,0-0.1,0-0.1,0
	c0,0,0,0.1,0,0.1v0.3l-0.1,0.1c0,0,0-0.1,0-0.1c0,0-0.1,0-0.1,0l-0.2,0c0,0-0.1,0-0.1,0c0,0,0,0.1,0,0.1v0.3l-0.7,0.4c0,0,0,0,0,0
	c0,0-0.1,0.1-0.1,0.1l0,0.4c0,0,0,0.1,0,0.1c0,0,0.1,0.1,0.2,0l1.7-0.5c0,0,0,0,0,0H61c0,0.6,0.1,1.2,0.1,1.6c0,0,0,0.1,0,0.1
	l-0.9,0.8c0,0,0,0,0,0c0,0-0.1,0.1-0.1,0.2v0.2c0,0,0,0.1,0,0.1c0,0,0.1,0.1,0.2,0l0.9-0.3c0,0,0,0,0,0l0.1,0c0,0.1,0.1,0.1,0.1,0.1
	c0,0,0.1,0.1,0.2,0.1l0,0l0,0c0.1,0,0.1,0,0.2-0.1c0,0,0.1-0.1,0.1-0.1h0.1c0,0,0,0,0,0l0.9,0.3c0.1,0,0.1,0,0.2,0l0,0
	c0,0,0-0.1,0-0.1l0-0.2c0-0.1,0-0.1-0.1-0.1c0,0,0,0,0,0l-0.9-0.8c0,0,0-0.1,0-0.1c0.1-0.5,0.1-1,0.1-1.6l0.6,0c0,0,0,0,0,0l1.7,0.5
	c0.1,0,0.1,0,0.2,0c0,0,0-0.1,0-0.1l0-0.4c0,0,0-0.1-0.1-0.1c0,0,0,0,0,0l-0.7-0.4l0-0.3c0,0,0-0.1,0-0.1c0,0-0.1,0-0.1,0h-0.2
	c0,0-0.1,0-0.1,0c0,0,0,0.1,0,0.1l-0.1-0.1v-0.3c0,0,0-0.1,0-0.1s-0.1,0-0.1,0l-0.2,0c0,0-0.1,0-0.1,0s0,0.1,0,0.1l0,0l-0.7-0.4
	c0-0.1,0-0.2,0-0.3C62.2,431.5,62.2,431.2,62.1,430.8L62.1,430.8z M62.1,430.8"/>
</svg>
