<?xml version="1.0" encoding="utf-8"?>
<!-- Generator: Adobe Illustrator 19.0.0, SVG Export Plug-In . SVG Version: 6.00 Build 0)  -->
<svg version="1.2" baseProfile="tiny" id="Слой_1"
	 xmlns="http://www.w3.org/2000/svg" xmlns:xlink="http://www.w3.org/1999/xlink" x="0px" y="0px" viewBox="0 0 30 30"
	 xml:space="preserve">
<path id="XMLID_1_" fill="none" stroke="#FFFFFF" stroke-miterlimit="10" d="M20.4,27.9c-3,0.2-5.4-1.1-7.4-2.7
	c-3-2.4-5.7-5-7.7-8.4C4,14.4,2.9,12,3,9.2C3.1,6.1,4.5,3.8,6.9,2c0.9-0.7,1.9-0.6,2.6,0.2c1,1.2,1.9,2.6,2.5,4
	c0.5,1.1,0.1,2.2-0.9,3.1c-2.9,2.6-3,3.7-0.7,6.8c1.3,1.7,2.8,3.2,4.5,4.5c1.7,1.4,2.8,1.2,4.4-0.3c2.4-2.1,3.2-2.2,5.6,0
	c0.7,0.6,1.3,1.2,2,1.9c0.8,0.8,0.8,1.7,0,2.6C25.1,26.7,22.5,27.7,20.4,27.9z"/>
</svg>
